PathFileType	4	(X/Y/Z)	pose_F01_0-92.trc
DataRate	CameraRate	NumFrames	NumMarkers	Units	OrigDataRate	OrigDataStartFrame	OrigNumFrames
30	30	9	21	m	30	69	92
Frame#	Time	CHip			RHip			RKnee			RAnkle			RBigToe			RSmallToe			RHeel			LHip			LKnee			LAnkle			LBigToe			LSmallToe			LHeel			Neck			Nose			RShoulder			RElbow			RWrist			LShoulder			LElbow			LWrist			
		X1	Y1	Z1	X2	Y2	Z2	X3	Y3	Z3	X4	Y4	Z4	X5	Y5	Z5	X6	Y6	Z6	X7	Y7	Z7	X8	Y8	Z8	X9	Y9	Z9	X10	Y10	Z10	X11	Y11	Z11	X12	Y12	Z12	X13	Y13	Z13	X14	Y14	Z14	X15	Y15	Z15	X16	Y16	Z16	X17	Y17	Z17	X18	Y18	Z18	X19	Y19	Z19	X20	Y20	Z20	X21	Y21	Z21	
69	2.3	-0.12296366224399082	1.8602994993083535	-0.4530802543486183	-0.13344763194324968	1.8571770205353642	-0.3952457511380189	-0.17346974664178036	1.7188934401652796	-0.38180219454107556	-0.19217484628224255	1.601807065392978	-0.41107263976794595										-0.10670764627009559	1.8633371941591512	-0.5120034612680291	-0.12290855725655457	1.721950347040492	-0.5036735138562742	-0.08465795534110093	1.607124264086197	-0.4680255167044466	-0.10633302084940827	1.5823136091151164	-0.5120764711594213	-0.0917177195359028	1.5915324974771612	-0.5245376112114678	-0.08093313531800418	1.6021365371289313	-0.4628538069602114	-0.12716904194920206	2.010944345371934	-0.4773268401230371	-0.1612376231289702	2.074676486289843	-0.4858568099849293	-0.14180929446346455	2.008785921076725	-0.3920903158712068	-0.15688746948284557	1.9252036654775593	-0.3512936456080722	-0.1964801668288233	1.9670954030006782	-0.3489013259031863	-0.1118373323599149	2.015118939415841	-0.5588107896391495	-0.1171662210176354	1.9464440504004987	-0.5721434318856674	-1.6966618231897537	1.8870724171158837	1.0831988585914907
70	2.3333333333333335	-0.11667364324113583	1.862963605390628	-0.46048790031272807	-0.12830986358672533	1.8598124141448211	-0.39704830265438007	-0.16419945241773432	1.724735293480622	-0.38827299050695724	-0.19217484628224255	1.601807065392978	-0.41107263976794595										-0.10243827079984019	1.8647539990138449	-0.5169426963370517	-0.11406930764058215	1.725203134337396	-0.5008010132103022	-0.08433945178064428	1.6082845174851395	-0.4686063741851776	-0.10431256198839069	1.5826320352331598	-0.514399674176415	-0.09165456067107319	1.5916102484556234	-0.5246364376441262	-0.08088060105985068	1.6047079935387956	-0.4631415289331523	-0.12446529121246486	2.0159398371032218	-0.4788425045166649	-0.15909838000599658	2.079704670198616	-0.48939019980329673	-0.14165783361785136	2.012752756635419	-0.39337605653406094	-0.15401933361539544	1.9292026876566968	-0.3601159866768124	-0.19618684832573668	1.9625949327491652	-0.35433294492625905	-0.10784538071224009	2.019019301059277	-0.5650556862163173	-0.11009578653660326	1.9481014764262403	-0.5765025201081255	-1.6951744783614717	1.8865442152428393	1.0820676203220412
71	2.3666666666666667	-0.11264577615563409	1.8667943644884848	-0.45669865778542845	-0.12322244995510474	1.8646428850474517	-0.39005211207983564	-0.15562134088746732	1.7312443388568366	-0.36695671799174207	-0.19217484628224255	1.601807065392978	-0.41107263976794595										-0.09996203170519996	1.8697816719706126	-0.5200105288204477	-0.10853279620089808	1.7316820689116723	-0.4991278922644412	-0.08142171828854246	1.6100382610268054	-0.46813926674258954	-0.10673280960538536	1.5843479556380593	-0.5117659163670588	-0.09389806118035533	1.5927529259242341	-0.5220208143034096	-0.0789575512693851	1.6043439068201755	-0.4563428736446115	-0.12502481077124825	2.020357774463264	-0.4824403249860169	-0.15970598575799827	2.082490944032104	-0.4921573387044921	-0.1395829981713946	2.016673926619021	-0.3962490914455704	-0.14474844629979702	1.934911172973491	-0.36433983390909547	-0.1948313266567245	1.9562655488031768	-0.3732413093833577	-0.1082855501382236	2.0242358405469494	-0.5685464745531911	-0.10430608021590318	1.9470005116535258	-0.5745778324952627	-1.7237987276055795	1.8869525841795916	1.1331734766859123
72	2.4	-0.10769004524635079	1.870663691639443	-0.45858058395759077	-0.11918217856981439	1.8661251393018314	-0.3948800537294053	-0.1503298902047263	1.7328732175183093	-0.36883414202800874	-0.19217484628224255	1.601807065392978	-0.41107263976794595										-0.09781180702506775	1.872479065555771	-0.5228235040738526	-0.10715494503893705	1.7368063397253073	-0.496942947152936	-0.08134647695607349	1.6099760932198668	-0.4681256934618824	-0.10374026732965748	1.5843597504594977	-0.5108257117302367	-0.09162810238723469	1.5942743327727695	-0.5248888694801206	-0.07907665419449438	1.6050582529959294	-0.4563594687696876	-0.12219546818881168	2.022861900483471	-0.48210138985963774	-0.15674185523448972	2.084685976407067	-0.4912087656367153	-0.13764533169184207	2.0182652678692206	-0.3983674000575754	-0.14056869539800665	1.932975237879614	-0.36773230746535174	-0.18937710290700877	1.9533624229989983	-0.3798630493880923	-0.105245845533804	2.026595365446612	-0.567693557361463	-0.10549421496840679	1.9494033443692282	-0.5695378856640199	-1.733662183899672	1.8867849221992228	1.150818900220699
73	2.433333333333333	-0.10776998253965073	1.873299948879113	-0.45924934941039336	-0.11741903027593978	1.8713850426075553	-0.3982174111403671	-0.14620131008058326	1.7341816514934572	-0.3736584916800793	-0.19217484628224255	1.601807065392978	-0.41107263976794595										-0.0957792198075224	1.8765342199590136	-0.5259237992839736	-0.10422491527646842	1.736935479572069	-0.49583558894608193	-0.08203833426345981	1.6113224440667684	-0.47191614835311513	-0.10366387027812735	1.5867459407636413	-0.5111098845371053	-0.09187505264567802	1.5956858215235408	-0.5246932248789256	-0.07966377007944539	1.6054476509656919	-0.460332942757211	-0.119995650106194	2.024272836195668	-0.48435759030040537	-0.1527849993130357	2.0871028843640578	-0.4960466458882327	-0.13282320336569922	2.0205992880625607	-0.40031536270678597	-0.13479872109560012	1.933871796610829	-0.3569803341154079	-0.17954343115914068	1.9556155883261732	-0.3820747035723802	-0.10318636615915977	2.027890701686734	-0.5705291823793414	-0.10118335753743969	1.950624484179192	-0.5741650505787332	-0.15310388350559015	1.9720080516674818	-0.5903432024034102
74	2.466666666666667	-0.10574065926248583	1.8784884440877638	-0.46246185695552955	-0.11542812132178994	1.8765605708968822	-0.401463121843824	-0.14224676951631668	1.7367973971268464	-0.3786042180312062	-0.19217484628224255	1.601807065392978	-0.41107263976794595										-0.09365766025488094	1.881740974445229	-0.5291747453163311	-0.10169278634885702	1.739447946493513	-0.4989817135891549	-0.08133081129203713	1.612702665957722	-0.46853562791425457	-0.10407727582728515	1.5869919943935897	-0.5102363716883666	-0.08998556457755603	1.5944141958173448	-0.5263569762406447	-0.07881093824907652	1.605896813367679	-0.45693063435668363	-0.1170364611293409	2.0252914958973913	-0.4834321935485808	-0.15077389418670462	2.0856962781420796	-0.497579077701067	-0.13083414148709127	2.0203617748685634	-0.4025422543342635	-0.13404174322582912	1.9376501020797432	-0.3726951062798945	-0.17965651228845803	1.9569648081682618	-0.3834092938570418	-0.10023056917921516	2.0302731343622225	-0.5700257487912429	-0.09826994819184219	1.950615217448055	-0.5734374455070963	-0.15219629824195666	1.9801095253161585	-0.5888181556686387
75	2.5	-0.10577226675533911	1.8797390522980844	-0.46294623411069374	-0.11653274696513219	1.876633764105404	-0.40499099072873407	-0.13844314975467722	1.737707686030695	-0.3830697301959428	-0.19217484628224255	1.601807065392978	-0.41107263976794595										-0.09085309454783765	1.8830887411045845	-0.5287214127816013	-0.10167017756848755	1.7394417880410025	-0.49896440852861784	-0.08160453652375661	1.6115985963672073	-0.4679208876842906	-0.10200161799347977	1.589813147373535	-0.5128678238883724	-0.08973936685779159	1.5958357307357969	-0.5268663038828466	-0.07898675176838148	1.6041771539871041	-0.4565798961685003	-0.1130617320216656	2.0275602085452964	-0.48851109976176316	-0.14877059006849233	2.085547780191406	-0.49974759728041	-0.12889516099814227	2.0213257799783135	-0.4049316256389474	-0.13310134785797023	1.9408908654129489	-0.38770350676574217	-2.155040478700286	1.9108389823268779	1.9339554094837181	-0.09438683095085144	2.031456352827134	-0.5683734499847148	-0.10015463016829257	1.9527982562539201	-0.5710861965045764	-0.15769041029003603	1.986601680563418	-0.5798006446846848
76	2.533333333333333	-0.10388928023033224	1.879885670872471	-0.46517555447766473	-0.11640408970226916	1.877942127916636	-0.40521924560328654	-0.13740868116564728	1.7378342217085283	-0.3798848651344142	-0.19217484628224255	1.601807065392978	-0.41107263976794595										-0.09097969391040729	1.8819588885917984	-0.5285277251388963	-0.09881852961411304	1.739776421287254	-0.49798085256288765	-0.08130929126245132	1.6099430436547197	-0.46814816622778294	-0.10408201084191603	1.5896788855529709	-0.5106841222625911	-0.09184416602396767	1.5957631252153364	-0.5246231322689233	-0.07867354814968783	1.602393868137496	-0.45688163131373416	-0.11110951276964588	2.0275713169565215	-0.49070532982207277	-0.14868788887751092	2.0856496167204086	-0.499882341676425	-0.12697664476432538	2.022039878383978	-0.40699625568842435	-0.13193899051905641	1.942858186256585	-0.38459607619140285	-2.165996656134335	1.9106490262871556	1.9552744652966776	-0.09350177998423978	2.0313894994948885	-0.5652528537988775	-0.09817352053718531	1.9533234844628247	-0.5737104417636885	-0.1472626824978805	1.9888078679774575	-0.5875614557268493
77	2.566666666666667	-0.10376720069904023	1.8824158849244703	-0.465674986880197	-0.11623585825515609	1.879215914646605	-0.4054031041465151	-0.13474572458009493	1.7368822278610891	-0.37826397976538323	-0.19217484628224255	1.601807065392978	-0.41107263976794595										-0.08880451393630123	1.8832666524376591	-0.5310069507373336	-0.09694471334965514	1.7410729959189193	-0.5002923022510044	-0.08117028666642716	1.6122703331188855	-0.4685554841918383	-0.10373180874682529	1.5908793642162267	-0.5112455745110044	-0.08949170715809562	1.5972024038792876	-0.5275060409062647	-0.07647706279695811	1.6043534248464002	-0.4594353784354771	-0.10730135019485701	2.028416346900855	-0.48655777618125934	-0.146755945998873	2.085697634319871	-0.5021012728806823	-0.12416023782461405	2.024111168866006	-0.40666860563479024	-0.1309537967023298	1.9444625746611495	-0.3908021143752706	-0.1677864621205442	1.9780153763207928	-0.39275054495999	-0.08862013266670538	2.0314471608043143	-0.5665616596351024	-0.09194757677260966	1.9571728221253477	-0.5818427794033302	-0.13683495470572496	1.9910140553914972	-0.5953222667690137
